<?xml version="1.0" encoding="utf-8"?>
<!-- Generator: Adobe Illustrator 25.1.0, SVG Export Plug-In . SVG Version: 6.00 Build 0)  -->
<svg version="1.1" id="图层_1" xmlns="http://www.w3.org/2000/svg" xmlns:xlink="http://www.w3.org/1999/xlink" x="0px" y="0px"
	 viewBox="0 0 2560 480" style="enable-background:new 0 0 2560 480;" xml:space="preserve">
<style type="text/css">
	.st0{fill:#879DAB;}
</style>
<g id="Symbol">
	<g>
		<path class="st0" d="M220.4,476.5C179,472.5,143,460,109.5,438c-23-15.1-44.1-35.2-60.8-57.8c-20.7-28-35.6-63.8-41.9-100.2
			c-4.8-27.8-4-62.7,2.2-90.8c11.6-53.4,41.4-101,84.8-135.8c33.8-27,76.6-44.2,123-49.4c4.3-0.5,15.1-0.9,24-0.9
			c21.2,0,37.7,2,56.7,6.5c67.6,16.5,126,63.1,155.9,124.6c22.7,46.6,30.1,100,20.9,150.4c-6.8,37.2-23.5,73.8-47.5,104.2
			c-8.3,10.5-28.4,30.3-38.9,38.5c-34.2,26.4-71.8,42-116.2,48.2C262.2,476.7,229.8,477.4,220.4,476.5z M271.9,460
			c5.8-0.8,14.2-2.4,18.8-3.4c9.5-2.2,25.9-7.1,25.9-7.7c0-0.3-25.6-14.1-56.8-30.7L203,387.9l-3.1,1.6c-1.7,1-4.4,1.9-5.9,2.2
			l-3,0.4l-11.1,27.8c-6.1,15.3-11.2,28.3-11.5,29c-0.8,2.2,24.4,8.9,42.8,11.5c12.7,1.8,13,1.8,32.2,1.6
			C257.1,461.7,263.9,461.3,271.9,460z M175,419.1l11.8-29l-1.8-2.1c-1-1.2-2.2-3.3-2.7-4.8c-0.4-1.4-1.3-2.6-1.7-2.6
			c-0.5-0.1-28.7-4-62.6-8.9c-34-4.8-61.7-8.6-61.7-8.3c0,0.2,3.2,4.6,7.1,9.9c20.2,26.9,43.8,47.3,73.5,63.3
			c6.8,3.7,24.1,11.5,25.6,11.5C162.9,448,168.5,435,175,419.1z M326.9,445.1l2.8-1.5l9.7-33l9.6-33l-2.6-2.9
			c-1.5-1.6-2.8-3.3-2.9-3.8c-0.2-0.6-21.8,1-69.7,5c-58.1,4.9-69.4,6-69.6,6.9c-0.1,0.8,16.7,10.1,58.9,32.4
			c32.5,17.1,59.5,31.2,60.1,31.3C323.6,446.4,325.4,445.8,326.9,445.1z M342.2,438.2c31.5-15.8,63.8-45,85.3-77
			c2.5-3.8,4.5-7.1,4.3-7.3c-0.3-0.3-60.4,11.8-64.4,12.9c-0.8,0.2-1.4,0.9-1.4,1.6c0,4.4-5.8,10-10.3,10c-1.4,0-2.5,0.1-2.5,0.4
			s-3.9,13.8-8.7,30.2c-4.7,16.4-8.8,30.4-9,31.1c-0.2,0.7-0.2,1.3,0.1,1.3C335.9,441.2,338.8,439.8,342.2,438.2z M273.8,371.1
			c37.1-3.1,67.8-5.6,68.4-5.6c0.5-0.1,1.8-1.7,2.7-3.8l1.8-3.8L334,337.8l-12.6-20.2h-3.3c-1.8,0-4.7-0.7-6.5-1.6l-3.1-1.6
			l-50.9,30.1c-28,16.6-51.6,30.7-52.4,31.2c-1.4,1-1.4,1-0.1,1C205.8,376.8,236.7,374.2,273.8,371.1z M185.6,372.5l3.6-3.6
			l-2.3-16.9c-1.4-9.3-4.5-31.3-7.1-48.9l-4.6-32.1h-3.3c-1.8,0-3.8-0.3-4.6-0.8c-1.2-0.6-11,6.5-58.3,42.5
			c-31.3,23.8-57.1,43.4-57.2,43.5c-0.2,0.2,0,0.7,0.4,1c0.6,0.6,122.5,18.5,127.5,18.7C181.6,376,182.9,375.2,185.6,372.5z
			 M254.3,341.4l51.7-30.8v-2.9V305l-11-3.5c-6.1-1.9-34-11.1-61.9-20.3l-50.7-16.7l-1.7,2.2l-1.6,2.2l7.4,50.2
			c6.1,41.8,7.6,50.2,8.6,50.2c0.6,0,2.3,0.7,3.8,1.4c1.4,0.8,2.8,1.5,3.2,1.5C202.3,372.2,225.8,358.4,254.3,341.4z M401.2,354.6
			c18.8-4,34.3-7.3,34.3-7.4c0.7-0.7,9.2-18.5,11.5-24c8.5-20.4,14.2-44.9,15.7-67.6l0.7-9.8L446,225.4
			c-16.8-19.9-17.4-20.5-19.8-20.3l-2.6,0.2l-31.3,76l-31.4,76l2,2.2c1.1,1.2,2.5,2.2,3.1,2.2S382.4,358.5,401.2,354.6z
			 M356.7,354.7c0.5-0.4,60.3-146.2,60.1-146.4c-0.1-0.1-20.5,20.4-45.4,45.7l-45,45.9l1,2.4c1.5,3.5,1.3,6.2-0.7,9.6l-1.7,3.1
			l12.8,20.3l12.8,20.4l3-0.5C355.3,355,356.7,354.8,356.7,354.7z M106.1,308.9c30.2-23,55-42.1,55.3-42.3c2.3-2-2.9-2.3-71-4.9
			c-38.7-1.4-70.6-2.5-70.8-2.2c-0.1,0.1,0.5,5.8,1.4,12.4c3.7,25.9,12.1,52,24.3,73.9c3.3,6.2,3.9,6.8,5,5.9
			C50.9,351.2,76.1,331.9,106.1,308.9z M309.4,298.2c1.3-1.2,2.9-2.4,3.6-2.9c1.1-0.7,1-4.8-1.7-52.1c-1.6-28.3-3-51.4-3-51.5
			c0-0.2-0.6-0.2-1.4-0.2c-0.8,0-2.2-0.7-3.4-1.6l-2-1.6l-25.6,15c-14.1,8.2-40.7,23.8-59,34.5c-18.4,10.8-33.4,20-33.4,20.5
			c0,0.6,23.4,8.7,61.5,21.4c33.8,11.2,61.7,20.4,61.8,20.5C306.8,300.2,308,299.4,309.4,298.2z M353.6,266.4
			c16.5-16.7,37.5-37.9,46.7-47.2l16.7-16.9l-1.3-2.3l-1.4-2.2l-43.9-6.2c-24.1-3.4-45.1-6.4-46.6-6.6c-2.3-0.3-2.8-0.1-4,2
			c-0.8,1.3-2.6,2.9-4,3.5c-1.4,0.7-2.6,1.6-2.6,2c-0.1,0.4,1.2,23.7,2.8,51.6l2.8,50.8l1.9,0.7c1.1,0.4,2,0.8,2.2,0.8
			C323.5,296.5,337.1,282.9,353.6,266.4z M159.6,257.8c-0.1-0.7-16.8-13.4-37.1-28.1l-36.9-26.9l-2.8,1.2c-1.9,0.8-4,1.1-6.3,0.8
			c-1.9-0.2-4.1-0.5-5-0.6c-1.2-0.2-8,5.7-27.2,23.7c-15.3,14.4-25.6,24.5-25.6,25.4c0,1.2,0.8,1.3,6.2,1.4c3.4,0,32.3,1,64.3,2.1
			C163.1,259.4,159.9,259.3,159.6,257.8z M164,251.2l1.6-1.7l-7.8-35c-4.3-19.2-7.9-35.1-7.9-35.2c0-0.1-1-0.4-2.4-0.8
			c-1.3-0.2-3.5-1.3-4.9-2.4l-2.6-1.9l-25.4,9.1l-25.4,9.1l-0.5,3.4c-0.4,2.8-0.2,3.5,0.9,4.4c0.8,0.5,17.2,12.7,36.6,26.9
			c19.3,14.2,35.4,25.9,35.6,25.9C162.2,253,163.1,252.2,164,251.2z M240,218.9c31.6-18.4,57.7-33.9,58.1-34.5
			c0.4-0.6,0.5-1.3,0.2-1.6c-0.2-0.3-31.3-3.1-69-6.3l-68.5-5.8l-1.2,1.9c-0.7,1.1-2.2,2.7-3.4,3.5l-2.1,1.6l7.8,34.9l7.9,34.9
			l3.2,0.5c2,0.3,4.1,1.3,5.6,2.6c1.4,1.2,2.8,2.1,3.1,1.9C182.3,252.6,208.4,237.4,240,218.9z M67,198.2c-0.5-5.3-0.3-7.4,0.8-9.4
			l1.1-2.2l-15.5-18.6L38,149.4l-2,4.4c-10.5,23.6-17.1,55-17.2,81.5v10.3L43,222.9C63.2,203.8,67.1,199.8,67,198.2z M462.8,225.7
			c-1.3-20.2-4.4-36.7-10.1-54.1c-2.9-8.8-10.1-26.2-10.5-25.7c-0.1,0.2-2.6,8.8-5.6,19.2l-5.4,19l2,1.9c3.8,3.9,4.4,10.1,1.1,14.2
			c-1.6,1.9-1.6,1.9-0.1,3.6c0.8,0.9,7.6,9,15.2,18c7.5,9,13.8,16.2,13.9,16.1C463.4,237.6,463.1,232.2,462.8,225.7z M414.6,189.2
			l1.6-3.1L382,127.4c-18.8-32.2-34.6-59-35-59.6c-0.7-0.7-1.4-0.8-3.1-0.2l-2.2,0.8l-13,50.7l-13,50.6l2.6,2.8c1.5,1.5,3,3.8,3.4,5
			l0.8,2.2l43.8,6.1c24.1,3.3,44.6,6.2,45.4,6.2C412.7,192.2,413.5,191.4,414.6,189.2z M113.5,178.3c22.6-8.2,24.5-9,24.5-10.7
			c0-0.9,0.5-2.9,1.1-4.3l1.1-2.7l-30.8-35.2c-16.9-19.4-31-35.1-31.1-34.9s0.1,16.4,0.4,36.2c0.4,19.7,0.8,40.4,0.8,45.8v9.9
			l2.2,0.9c1.2,0.4,2.9,1.7,3.9,2.7c1,1.1,2.1,1.7,2.5,1.6C88.5,187.4,99.9,183.2,113.5,178.3z M74.7,147.3
			c-0.2-19.7-0.7-39.5-0.9-44.2c-0.6-10-0.2-10.1-9,1.5c-7,9.1-14.4,20.9-20.4,32.1l-4.6,8.6L56,164.6
			c13.6,16.2,16.4,19.1,17.6,18.8l1.7-0.5L74.7,147.3z M426.8,181.8c0.2-0.2,3.2-10,6.6-21.7l6.1-21.1l-4.6-8.1
			c-5.6-9.7-13.1-20.8-19.9-29.4c-10.5-13.2-38.6-39.6-44.6-41.9c-1-0.4-5.4-1-9.8-1.3l-7.9-0.5l-1.2,3l-1.2,3l34.6,59.7l34.6,59.7
			l3.4-0.4C424.9,182.5,426.6,182.1,426.8,181.8z M296.6,176.6c-0.4-0.4-27.1-14.4-59.2-31.3c-32.2-16.8-60.5-31.7-62.9-32.9
			c-3.9-2.1-4.4-2.2-5.2-1.1c-1.3,1.7-5.9,4.4-7.4,4.4c-1.4,0-1.2-1.1-5.1,22.5c-2.2,12.7-2.8,18.4-2.2,18.6c2,0.7,4.7,3.8,5.6,6.5
			c0.8,2.4,1.4,3.1,3.2,3.3c5,0.6,126.2,10.4,130,10.5C295.5,177.2,297,176.9,296.6,176.6z M303.4,172c0.8-0.8,2.9-1.9,4.7-2.3
			c2.8-0.8,3.3-1.2,3.9-3.6c6.8-25.9,25-96,25.3-96.9c0.2-0.8-0.5-1.7-2.2-2.7c-1.4-0.8-3.2-2.9-4-4.5l-1.4-3l-78.7,22.3
			c-64.4,18.3-78.8,22.6-78.8,23.6c0,0.9,17.9,10.6,64.5,34.9c35.5,18.5,64.7,33.7,64.9,33.7C301.8,173.5,302.6,172.8,303.4,172z
			 M147.7,156.2c1,0,1.6-0.7,1.9-2c0.8-3.5,6.4-37.3,6.4-38.1c0-0.4-1-1.4-2.2-2.2c-2.6-1.8-4.3-4.4-5-8.1c-0.3-1.7-1-2.9-1.8-3.2
			C136.4,99.6,82.5,85,81.8,85c-0.5,0-0.8,0.4-0.7,0.8s14.2,16.8,31.4,36.3c26.2,29.9,31.2,35.4,32.3,34.8
			C145.6,156.6,146.9,156.2,147.7,156.2z M250.9,76.4c55.6-15.6,79-22.5,79.5-23.4c0.5-0.7,1.8-2.4,3.1-3.9l2.3-2.6l-2.2-5.1
			c-2.6-5.8-1.9-5.3-15.4-10.4c-23.2-8.7-49-13.5-73.8-13.7c-7.3,0-13.3,0.1-13.6,0.3c-6.7,8-61.3,79-61.3,79.7c0,1.3,0.7,2,1.7,1.6
			C171.8,98.6,207.6,88.5,250.9,76.4z M152,96.2c2.3-2.6,6.1-3.8,10-3.3l3.5,0.4L194,56.8c15.6-20.1,28.9-37.2,29.4-38
			c1-1.3,0.8-1.4-3.4-0.9c-48,4.9-95,26-129.9,58.2l-4.6,4.3l3.2,0.9c20.3,5.6,60.4,16.3,61.1,16.3C150.2,97.8,151.1,97,152,96.2z
			 M363,53.9c0-0.4-16.7-10.4-20.8-12.4c-1.8-1-3.5-1.5-3.7-1.3c-0.1,0.2,0.2,1.4,0.8,2.7c0.9,1.7,2,2.5,4.4,3.2
			c2,0.5,4.2,1.9,6.1,3.9c2.6,2.8,3.3,3.1,7.9,3.5c2.7,0.3,5,0.6,5.2,0.7C362.9,54.2,363,54.1,363,53.9z"/>
	</g>
</g>
<g>
	<path class="st0" d="M575.6,407.3c-13.7-8.1-24.3-19.5-31.8-34.3c-7.5-14.8-11.3-32.3-11.3-52.4v-0.1c0-19.8,3.8-36.9,11.3-51.4
		c7.5-14.4,18.1-25.6,31.8-33.6c13.7-7.9,29.8-11.9,48.3-11.9c15.3,0,28.6,2.6,39.8,7.7s20.4,12.1,27.6,20.9
		c7.2,8.8,12.3,18.8,15.4,30l0.7,2.5h-26.1l-0.6-1.4c-4.6-12-11.7-21.3-21.3-27.9c-9.6-6.6-21.4-9.9-35.4-9.9c-13.6,0-25.4,3-35.3,9
		c-9.9,6-17.4,14.6-22.8,25.8c-5.3,11.2-8,24.6-8,40.2v0.1c0,15.9,2.7,29.6,8,41.1c5.3,11.6,13,20.4,22.8,26.7
		c9.9,6.2,21.6,9.3,35.1,9.3c11.8,0,22.2-2.3,31.2-6.8c9-4.5,16-10.8,21-18.8c5-8.1,7.5-17.4,7.5-28v-3.4h-56.3v-20.8h81.2v18
		c0,17.1-3.4,31.7-10.1,43.9c-6.7,12.2-16.4,21.5-29,28c-12.6,6.5-27.8,9.7-45.6,9.7C605.4,419.5,589.3,415.4,575.6,407.3z"/>
	<path class="st0" d="M916,226.8h24.9v189.5H916V226.8z"/>
	<path class="st0" d="M1155.2,226.8h24.2l131,178.5l-31.5-28.9h11.1V226.8h24.6v189.5h-24.2l-131-178.5l31.5,28.9h-11.1v149.6h-24.6
		V226.8z"/>
	<path class="st0" d="M1512.9,226.8h26.1l59.5,161.2h0.6l59.5-161.2h26.1l-73.6,189.5h-24.6L1512.9,226.8z"/>
	<path class="st0" d="M1867.2,226.8h26.1l59.5,161.2h0.6l59.5-161.2h26.1l-73.6,189.5h-24.6L1867.2,226.8z"/>
	<path class="st0" d="M2273.6,226.8h18.4v28.4h-6.4l-60.2,161.2h-26.1L2273.6,226.8z M2241.7,342h88.5l8.3,20.1h-105.1L2241.7,342z
		 M2286.2,255.2v-28.4h12l74.1,189.5h-26.1L2286.2,255.2z"/>
</g>
<g>
	<path class="st0" d="M546.7,71.1h-28.5v-7h65.1v7h-28.5V146h-8.1V71.1z"/>
	<path class="st0" d="M635.3,64.1h8.1v36.4h50.4V64.1h8.1V146h-8.1v-38.5h-50.4V146h-8.1V64.1z"/>
	<path class="st0" d="M759.7,64.1h52.1v7h-43.9v29.5h41.7v6.9h-41.7V139h43.9v7h-52.1V64.1z"/>
	<path class="st0" d="M948.8,142c-5.8-3.5-10.3-8.5-13.4-14.9c-3.2-6.4-4.8-13.9-4.8-22.6v-0.1c0-8.5,1.6-15.9,4.8-22.1
		c3.2-6.2,7.6-11,13.4-14.5c5.8-3.4,12.6-5.1,20.4-5.1c6.3,0,11.8,1.1,16.6,3.2c4.8,2.1,8.7,5.1,11.9,8.9c3.1,3.8,5.4,8.3,6.7,13.4
		l0.2,0.9H996l-0.2-0.6c-2-6.1-5.3-10.7-9.9-13.9c-4.6-3.2-10.2-4.8-16.7-4.8c-6.3,0-11.6,1.4-16.2,4.2c-4.5,2.8-8,6.8-10.5,11.9
		c-2.5,5.2-3.7,11.3-3.7,18.5v0.1c0,7.3,1.2,13.6,3.7,18.9c2.5,5.3,6,9.5,10.5,12.3s9.9,4.3,16.1,4.3c5.5,0,10.4-1.1,14.6-3.3
		c4.2-2.2,7.4-5.4,9.7-9.4c2.3-4,3.5-8.7,3.5-14v-1.8h-26.8v-6.8h35v6.8c0,7.3-1.4,13.7-4.3,19c-2.9,5.3-7,9.4-12.4,12.3
		c-5.4,2.9-11.8,4.3-19.2,4.3C961.3,147.3,954.5,145.5,948.8,142z"/>
	<path class="st0" d="M1074.6,142.1c-5.9-3.4-10.4-8.3-13.6-14.6c-3.2-6.3-4.8-13.8-4.8-22.4V105c0-8.6,1.6-16.1,4.8-22.4
		c3.2-6.3,7.7-11.2,13.6-14.6c5.9-3.4,12.8-5.2,20.7-5.2c8,0,15,1.7,20.8,5.2c5.8,3.4,10.3,8.3,13.5,14.6c3.2,6.3,4.8,13.8,4.8,22.4
		v0.1c0,8.6-1.6,16.1-4.8,22.4c-3.2,6.3-7.7,11.2-13.5,14.6c-5.8,3.4-12.7,5.2-20.8,5.2S1080.5,145.6,1074.6,142.1z M1111.9,135.8
		c4.6-2.9,8.2-7,10.7-12.2c2.5-5.3,3.8-11.4,3.8-18.5V105c0-7.2-1.3-13.3-3.8-18.6c-2.5-5.2-6.1-9.3-10.7-12.1
		c-4.6-2.9-10.1-4.3-16.4-4.3c-6.3,0-11.7,1.4-16.3,4.3c-4.6,2.9-8.2,6.9-10.8,12.1c-2.5,5.2-3.8,11.4-3.8,18.6v0.1
		c0,7.1,1.3,13.3,3.8,18.6c2.5,5.3,6.1,9.3,10.8,12.2c4.6,2.9,10.1,4.3,16.4,4.3C1101.8,140.2,1107.3,138.7,1111.9,135.8z"/>
	<path class="st0" d="M1203.7,142.1c-5.9-3.4-10.4-8.3-13.6-14.6c-3.2-6.3-4.8-13.8-4.8-22.4V105c0-8.6,1.6-16.1,4.8-22.4
		c3.2-6.3,7.7-11.2,13.6-14.6c5.9-3.4,12.8-5.2,20.7-5.2c8,0,15,1.7,20.8,5.2c5.8,3.4,10.3,8.3,13.5,14.6c3.2,6.3,4.8,13.8,4.8,22.4
		v0.1c0,8.6-1.6,16.1-4.8,22.4c-3.2,6.3-7.7,11.2-13.5,14.6c-5.8,3.4-12.7,5.2-20.8,5.2S1209.6,145.6,1203.7,142.1z M1241,135.8
		c4.6-2.9,8.2-7,10.7-12.2c2.5-5.3,3.8-11.4,3.8-18.5V105c0-7.2-1.3-13.3-3.8-18.6c-2.5-5.2-6.1-9.3-10.7-12.1
		c-4.6-2.9-10.1-4.3-16.4-4.3c-6.3,0-11.7,1.4-16.3,4.3c-4.6,2.9-8.2,6.9-10.8,12.1c-2.5,5.2-3.8,11.4-3.8,18.6v0.1
		c0,7.1,1.3,13.3,3.8,18.6c2.5,5.3,6.1,9.3,10.8,12.2c4.6,2.9,10.1,4.3,16.4,4.3C1230.9,140.2,1236.4,138.7,1241,135.8z"/>
	<path class="st0" d="M1318,64.1h28c8.6,0,15.9,1.6,22,4.8c6.1,3.2,10.7,7.9,14,14c3.2,6.1,4.9,13.5,4.9,22.1v0.1
		c0,8.6-1.6,16-4.8,22.1c-3.2,6.1-7.9,10.8-14,14c-6.1,3.2-13.4,4.8-22.1,4.8h-28V64.1z M1345.4,139c7.1,0,13.1-1.3,18-3.9
		c4.9-2.6,8.6-6.5,11.2-11.5c2.6-5.1,3.9-11.2,3.9-18.4V105c0-7.3-1.3-13.4-3.9-18.5c-2.6-5.1-6.3-8.9-11.2-11.5
		c-4.9-2.6-10.9-3.9-18-3.9h-19.3V139H1345.4z"/>
	<path class="st0" d="M1507.8,64.1h8.1V139h43.1v7h-51.3V64.1z"/>
	<path class="st0" d="M1612.2,64.1h8.1V146h-8.1V64.1z"/>
	<path class="st0" d="M1678.1,64.1h51.3v7h-43.1v30.8h39.7v6.9h-39.7V146h-8.1V64.1z"/>
	<path class="st0" d="M1783,64.1h52.1v7h-43.9v29.5h41.7v6.9h-41.7V139h43.9v7H1783V64.1z"/>
	<path class="st0" d="M1951.8,64.1h8.5l19.1,70.4h0.2l20.9-70.4h8.1l21,70.4h0.2l19.1-70.4h8.5l-23.8,81.9h-7.6l-21.3-69.2h-0.2
		l-21.3,69.2h-7.6L1951.8,64.1z"/>
	<path class="st0" d="M2109.6,64.1h8.1V146h-8.1V64.1z"/>
	<path class="st0" d="M2198.1,71.1h-28.5v-7h65.1v7h-28.5V146h-8.1V71.1z"/>
	<path class="st0" d="M2286.7,64.1h8.1v36.4h50.4V64.1h8.1V146h-8.1v-38.5h-50.4V146h-8.1V64.1z"/>
</g>
</svg>
